<svg viewBox="16.568918918918943 -21.799999999999997 396.02432432432437 588.5999999999999" xmlns="http://www.w3.org/2000/svg" xmlns:xlink="http://www.w3.org/1999/xlink" overflow="visible" width="366.6891891891892px" height="544.9999999999999px"><rect id="Blush Background Color" fill="#001100" x="16.568918918918943" y="-21.799999999999997" width="396.02432432432437" height="588.5999999999999"/><defs><path d="M148.640872,414.988848 L27.7458936,419.210594 C18.7158011,419.525932 11.1398329,412.461227 10.8244951,403.431135 L0.375077719,104.198971 C0.0597399402,95.168878 7.12444451,87.5929099 16.154537,87.2775721 L44.8578599,0.650926334 L340.15489,0.650926334 L340.15489,545.324194 L210.432361,545.324194 C170.3946,458.393575 149.797437,414.94846 148.640872,414.988848 Z" id="mastercompositionphone-path-1"/></defs><g id="Master/Composition/Phone" stroke="none" stroke-width="1" fill="none" fill-rule="evenodd"><g id="Background" opacity=".2" transform="translate(46.000000, -1.000000)"><circle id="Oval" fill="#FFA434" cx="154.851" cy="198.267" r="154.851"/><circle id="Oval" fill="#4af626" cx="249.109" cy="518.069" r="27.604"/><polygon id="Polygon" fill="#4af626" points="129.277228 0.98019802 162.277228 33.980198 129.277228 66.980198 96.2772277 33.980198"/><polygon id="Polygon" fill="#FFA434" points="37.7029703 465.554455 53.8613861 481.712871 37.7029703 497.871287 21.5445545 481.712871"/><polygon id="Polygon" fill="#2026A2" points="271.326733 43.4158416 279.405941 51.4950495 271.326733 59.5742574 263.247525 51.4950495"/></g><g id="Phone" transform="translate(31.830542, 74.998197)"><path d="M23.6844272,4.19999901 L143.520295,0.0152382774 C157.065434,-0.457768391 168.429386,10.1392885 168.902393,23.6844272 L179.313777,321.827451 C179.786784,335.37259 169.189727,346.736542 155.644588,347.209549 L35.8087197,351.394309 C22.2635809,351.867316 10.8996288,341.270259 10.4266221,327.72512 L0.0152382774,29.5820966 C-0.457768391,16.0369579 10.1392885,4.67300568 23.6844272,4.19999901 Z" id="base" fill="#F2F2F2"/><path d="M42.5752937,13.6798635 C42.7508502,18.7071431 46.8976668,22.6594379 51.8955462,22.627117 L52.1640861,22.6215571 L116.370557,20.3794177 C121.397837,20.2038613 125.350132,16.0570446 125.317811,11.0591652 L125.312251,10.7906253 L125.217065,8.06485602 L144.064084,7.40670361 C153.094176,7.09136583 160.670144,14.1560704 160.985482,23.1861629 L171.4349,322.418327 C171.750237,331.44842 164.685533,339.024388 155.65544,339.339726 L34.760462,343.561471 C25.7303695,343.876809 18.1544014,336.812104 17.8390636,327.782012 L7.38964619,28.5498477 C7.07430841,19.5197552 14.139013,11.9437871 23.1691055,11.6284493 L42.4801077,10.9540942 L42.5752937,13.6798635 Z" id="Screen" fill="#240E6A"/></g><g id="Character" transform="translate(294.500000, 349.500000) scale(-1, 1) translate(-294.500000, -349.500000) translate(191.000000, 200.000000)"><g id="Head/Front" transform="translate(74.572859, 52.187723) rotate(-27.000000) translate(-74.572859, -52.187723) translate(28.790680, 17.177822) scale(0.6732647058823529 0.6732692307692307)"><g id="Head/Front/Short Beard" stroke="none" stroke-width="1" fill="none" fill-rule="evenodd"><g id="Head" transform="translate(54.000000, 31.000000)" fill="#57331f"><path d="M38.1433414,9.13393292 C43.9381521,19.9350547 43.249578,47.3329958 35.7603014,49.2634576 C32.773664,50.0333035 26.4113241,48.1475566 19.935865,44.2446031 L24,73 L0,73 L8.26160177,34.4893378 C3.65406109,29.0807313 0.535660132,22.452516 1.05677633,15.0254539 C2.55833022,-6.37502057 32.3485306,-1.66718886 38.1433414,9.13393292 Z" id="SKIN"/></g><path d="M79.1320584,29.6205713 C85.8659611,30.1981637 91.8790132,32.2515132 93.5831606,33.4709469 C93.5831606,39.8461712 92.3478701,41.7376815 81.7968056,41.5709519 C79.2045191,42.9399877 77.211635,45.2973585 75.1359806,48.3879237 C76.0537047,61.185356 78.4839205,67.5846937 82.4257914,67.5846937 C88.3385979,67.5846937 93.355194,63.8310443 95.9495915,63.8310443 C97.8408192,63.8310443 97.4185661,66.1977405 96.1649615,67.9524776 C95.1306973,69.4001921 90.0939174,70.7956158 90.0939174,73.0400595 C90.0939174,75.2845031 94.0733913,73.5481008 94.0733913,74.8792364 C94.0733913,77.0810973 94.7727779,81.2209894 90.9512241,81.2209894 C87.0836843,81.2209894 75.9947625,79.8115837 74.0944216,74.0714721 C72.8680535,70.367142 72.0750985,62.6912593 71.7155566,51.0438241 C71.4812891,51.0143652 71.2423222,51 71,51 C67.6862915,51 65,53.6862915 65,57 C65,58.6822183 65.6922919,60.2027431 66.807515,61.292214 C65.4191964,63.2518162 63.8632894,65.2988831 62.0803863,67.4111902 C55.3824054,63.3926741 49.4121226,50.6289713 55.9604861,39.3282783 C57.7704744,33.7922446 62.8680346,31.8352408 67.7073518,30.4622091 C71.6274481,28.8224203 75.6968791,28.6375327 79.1320584,29.6205713 Z" id="Hair" fill="#2c1b18"/></g></g><g id="Bottom/Standing" transform="translate(4.712871, 137.346535) scale(0.6732666666666667 0.6732677824267782)"><g id="Bottom/Standing/Sweatpants" stroke="none" stroke-width="1" fill="none" fill-rule="evenodd"><polygon id="SKIN" fill="#57331f" points="128 9.9475983e-14 164.630838 126.226909 181.860154 221 199.153197 221 181.890974 9.9475983e-14"/><polygon id="Shadow" fill-opacity=".1" fill="#000" points="128 9.9475983e-14 164.630838 126.226909 181.860154 221 199.153197 221 181.890974 9.9475983e-14"/><path d="M111.537727,0 C114.093705,65.5742244 113.085665,101.340188 112.513606,107.297892 C111.941548,113.255595 108.69393,153.156298 86.5636874,223 L104.549973,223 C133.85784,155.996902 144.088936,116.096199 147.450326,107.297892 C150.811717,98.4995844 160.739403,62.7336205 175.233385,0 L111.537727,0 Z" id="SKIN" fill="#57331f"/><path d="M127.213639,1.13686838e-13 C136.741891,43.4350253 153.221683,112.768359 176.653017,208 L201.946059,208 C203.814239,110.253828 195.86709,45.9204947 182.104613,1.13686838e-13 L127.213639,1.13686838e-13 Z" id="Pant" fill="#00b900"/><path d="M111.409919,0 C113.913164,65.5742244 107.425844,130.177256 87.3305078,209.020958 L114.316793,209.020958 C143.678541,143.017859 164.723052,78.7336205 179.105577,0 L111.409919,0 Z" id="Pant" fill="#4af626"/><g id="Left" transform="translate(84.000000, 218.000000)" fill="#191847"><path d="M0,18 L0.99242267,2 C6.8029179,3.69942511 14.0806841,3.03275844 22.8257214,0 C32.2287535,6.660617 44.0659431,11.2086712 58.3372903,13.6441626 C59.4261013,13.829999 60.1581292,14.8632891 59.9723163,15.9521041 C59.9602834,16.0226139 59.9444765,16.0924273 59.9249637,16.1612435 L58.5529375,21 L58.5529375,21 L22.8257214,21 L1.98484534,21 L0,18 Z" id="Shoe"/></g><g id="Right" transform="translate(178.000000, 218.000000)" fill="#191847"><path d="M0,18 L0.99242267,2 C6.8029179,3.69942511 14.0806841,3.03275844 22.8257214,0 C32.2287535,6.660617 44.0659431,11.2086712 58.3372903,13.6441626 C59.4261013,13.829999 60.1581292,14.8632891 59.9723163,15.9521041 C59.9602834,16.0226139 59.9444765,16.0924273 59.9249637,16.1612435 L58.5529375,21 L58.5529375,21 L22.8257214,21 L1.98484534,21 L0,18 Z" id="Shoe"/></g></g></g><g id="Body" transform="translate(99.164335, 132.426606) rotate(-14.000000) translate(-99.164335, -132.426606) translate(12.986117, 69.476111) scale(0.673265625 0.6732673796791444)"><g id="Body/Jacket 2" stroke="none" stroke-width="1" fill="none" fill-rule="evenodd"><path d="M51.5082829,82 L72,86.0658446 C51.3920824,124.471059 40.3404263,144.825845 38.8450319,147.130202 C35.4803944,152.315007 38.6196693,161.817238 39.7793043,166.821179 C32.5044044,168.51462 35.3734014,157.565005 26.1671562,159.851185 C17.7641225,161.937904 10.6393632,167.293169 2.8038784,160.07074 C1.84055159,159.182785 1.13535082,156.407288 4.41981989,154.983749 C12.6026301,151.437195 24.6920431,144.796343 26.6523424,142.218096 C29.3255608,138.702197 37.6108743,118.629498 51.5082829,82 Z M254.188168,51.2551684 L253.816855,51.7996726 C250.728428,56.3479545 247.838405,61.1194481 249.076289,62.7052963 C250.363689,64.3545786 254.093006,62.5342201 255.566345,65.2162765 C256.548571,67.0043141 250.262286,69.1431805 236.707491,71.6328758 L209.56994,92.4392868 L198,77.6170876 L234.234567,61.7041739 C240.582018,55.3790221 246.711387,50.5716141 252.622674,47.2819501 C254.390261,46.7192094 257.410101,46.5491987 254.188168,51.2551684 Z" id="SKIN" fill="#57331f"/><path d="M123.280247,9.87718027 L131.765198,7.64600959 C152.120135,24.2050747 163.602366,67.2616718 176.61267,71.9556463 C188.913385,76.3936093 205.208593,69.6320097 224.503164,60.7390322 L231.796052,73.8353428 C215.409826,95.0000245 178.298612,114.916545 161.84294,106.839809 C135.533742,93.9267871 125.046804,40.501408 123.280247,9.87718027 Z" id="Coat-Back" fill="#afab00" transform="translate(177.538150, 58.161768) rotate(5.000000) translate(-177.538150, -58.161768)"/><path d="M90,114 C124.671756,114 150.175573,114 166.511451,114 C170.007634,114 169.348845,108.951637 168.84345,106.404206 C163.010588,77.0037663 140.241304,45.3115155 140.241304,3.4607303 L118.1718,0 C99.917485,29.3584068 93.6048263,65.5045499 90,114 Z" id="Shirt" fill="#C7D1D9"/><path d="M125.486398,0 C145.298923,67.5369477 150.760885,112.536948 141.872285,135 L141.872285,135 L73,135 C74.0896915,118.562494 77.5838029,101.179176 82.3695915,84.2302075 C66.7719945,112.366884 53.6611932,132.623153 43.0374452,145 L27,141.85882 C37.3305927,77.7906722 67.2466105,30.5043988 116.748053,-9.9475983e-14 Z" id="Coat-Front" fill="#eee537"/></g></g></g><g id="illustration" transform="translate(38.845110, -0.650926)"><mask id="mastercompositionphone-mask-2" fill="#ffffff"><use xlink:href="#mastercompositionphone-path-1" fill="#ffffff"/></mask><g id="Screen"/><g mask="url(#mastercompositionphone-mask-2)"><g transform="translate(163.987678, 118.803809) rotate(44.000000) translate(-163.987678, -118.803809) translate(85.677617, 59.000000) scale(1.1516176470588235 1.1500769230769232)" id="Head/Front"><g id="Head/Front/Pony" stroke="none" stroke-width="1" fill="none" fill-rule="evenodd"><g id="Head" transform="translate(54.000000, 31.000000)" fill="#57331f"><path d="M38.1433414,9.13393292 C43.9381521,19.9350547 43.249578,47.3329958 35.7603014,49.2634576 C32.773664,50.0333035 26.4113241,48.1475566 19.935865,44.2446031 L24,73 L0,73 L8.26160177,34.4893378 C3.65406109,29.0807313 0.535660132,22.452516 1.05677633,15.0254539 C2.55833022,-6.37502057 32.3485306,-1.66718886 38.1433414,9.13393292 Z" id="SKIN"/></g><path d="M85,20 C90.5228475,20 95,24.4771525 95,30 C95,35.3410198 90.8127956,39.7040656 85.5419603,39.9855639 C82.52665,40.9159501 78.652205,41.5991191 74.3554723,41.8871633 C74.7731728,43.4546552 75,45.2371662 75,47.2515622 C75,49.0297471 74.8037305,50.9156116 74.4423323,52.830447 C73.5104419,51.7226907 72.2645499,51 71,51 C67.4624339,51 65,53.9101491 65,57 C65,60.921473 67.2638523,63.7583807 70.5686423,63.9853231 C67.5928462,69.6977453 63.4766199,74 59.3643383,74 C51.5536227,74 46,63.5572795 46,52.3295687 C46,51.9352687 46.0078091,51.5435904 46.0232171,51.1548362 C37.76115,56.8236574 31.3934269,68 20.4607455,68 C5.58722916,68 -0.31966425,38 20.4607455,38 C34.5937155,38 41.5452771,40.0606888 47.5363802,43.1079078 C48.717165,39.776125 50.5190091,36.9754084 52.7223037,35.019628 C53.2532741,34.4219859 54.0676154,33.8503284 55.1183254,33.3204668 L55.3390046,33.2026834 C55.9069881,32.9078805 56.491867,32.6638682 57.0909876,32.474461 C60.7039676,31.1456721 65.9406328,30.2079405 71.790603,30.003655 C72.8825295,29.9655241 73.954923,29.9543748 75.0010758,29.9684476 C75.0173488,24.4598244 79.4878505,20 85,20 Z" id="hair" fill="#2c1b18"/></g></g></g><g mask="url(#mastercompositionphone-mask-2)"><g transform="translate(28.693069, 365.730659) rotate(12.000000) translate(-28.693069, -365.730659) translate(-144.000000, 228.047491) scale(1.1512866666666668 1.1521589958158995)" id="Bottom/Standing"><g id="Bottom/Standing/Skirt" stroke="none" stroke-width="1" fill="none" fill-rule="evenodd"><path d="M97.4078252,98.0880741 C121.397173,104.797924 142.094458,108.152849 159.499678,108.152849 C176.904899,108.152849 193.071673,102.986324 208,92.6532736 C184.524241,85.7662231 165.190908,82.3226979 150,82.3226979 C134.809092,82.3226979 117.278368,87.5778233 97.4078252,98.0880741 Z" id="Skirt-Shadow" fill="#00b900"/><path d="M180.266835,117.824327 C180.035521,117.476585 179.840175,117.098311 179.685231,116.688552 C176.478637,108.208488 125.116885,16.7255336 120,0 L177.826087,0 C181.716527,12.7166594 199.227018,92.5197596 201.69132,108.441654 C209.466648,133.556719 225.475271,214.895245 227.518903,220.530129 C229.66877,226.457932 217.572184,232.63317 214.348729,225.345671 C209.219667,213.750031 196.998649,181.665102 191.557135,162.074268 C186.455728,143.707903 182.301821,127.184501 180.266835,117.824327 Z" id="SKIN" fill="#57331f"/><path d="M180.266835,117.824327 C180.035521,117.476585 179.840175,117.098311 179.685231,116.688552 C176.478637,108.208488 125.116885,16.7255336 120,0 L177.826087,0 C181.716527,12.7166594 199.227018,92.5197596 201.69132,108.441654 C209.466648,133.556719 225.475271,214.895245 227.518903,220.530129 C229.66877,226.457932 217.572184,232.63317 214.348729,225.345671 C209.219667,213.750031 196.998649,181.665102 191.557135,162.074268 C186.455728,143.707903 182.301821,127.184501 180.266835,117.824327 Z" id="Shadow" fill-opacity=".1" fill="#000"/><path d="M132.957062,128.993595 C109.475313,134.928474 23.5840287,145.657684 17.6897926,147.340533 C11.6264626,149.07166 6.31008232,136.573779 13.8046857,133.866526 C25.7298651,129.558829 58.589132,119.605712 78.5118243,115.544042 C94.5364316,112.27708 109.159082,109.611243 118.976345,108.050159 C118.144649,80.4734403 114.342756,14.2935455 116.834687,1.42108547e-14 L168,1.42108547e-14 C165.610405,13.7065491 145.410112,113.717714 141.6556,123.728549 C140.464101,127.302484 136.908919,128.8819 132.957062,128.993595 L132.957062,128.993595 Z" id="SKIN" fill="#57331f"/><g id="Left" transform="translate(15.057502, 158.157254) rotate(80.000000) translate(-15.057502, -158.157254) translate(-13.942498, 147.657254)" fill="#E4E4E4"><path d="M1.67813181,6.40192425 C0.559377268,9.38841089 0,11.6229931 0,13.1056708 C0,14.908957 0.300414205,17.5404001 0.901242614,21 C2.99318117,21 21.7937852,21 57.3030548,21 C58.768738,16.1545073 57.9226607,13.5385816 54.7648228,13.1522232 C51.606985,12.7658647 48.9837155,12.4170139 46.8950143,12.1056708 L20.6799926,0.41888346 C20.1755635,0.194006431 19.584344,0.4206282 19.359467,0.925057349 C19.35562,0.933686736 19.3518954,0.94237021 19.3482945,0.951105155 L17.6632131,5.03869504 L17.6632131,5.03869504 C14.7398812,6.40265216 12.3643706,7.08463071 10.5366811,7.08463071 C9.05172687,7.08463071 7.00099246,6.48490544 4.38447792,5.28545491 L4.38448339,5.28544297 C3.38038273,4.82514778 2.19325534,5.26598921 1.73296014,6.27008987 C1.71312074,6.31336808 1.69483298,6.35734088 1.67813181,6.40192425 Z" id="shoe"/></g><g id="Right" transform="translate(209.000000, 218.000000)" fill="#E4E4E4"><path d="M1.67813181,6.40192425 C0.559377268,9.38841089 0,11.6229931 0,13.1056708 C0,14.908957 0.300414205,17.5404001 0.901242614,21 C2.99318117,21 21.7937852,21 57.3030548,21 C58.768738,16.1545073 57.9226607,13.5385816 54.7648228,13.1522232 C51.606985,12.7658647 48.9837155,12.4170139 46.8950143,12.1056708 L20.6799926,0.41888346 C20.1755635,0.194006431 19.584344,0.4206282 19.359467,0.925057349 C19.35562,0.933686736 19.3518954,0.94237021 19.3482945,0.951105155 L17.6632131,5.03869504 L17.6632131,5.03869504 C14.7398812,6.40265216 12.3643706,7.08463071 10.5366811,7.08463071 C9.05172687,7.08463071 7.00099246,6.48490544 4.38447792,5.28545491 L4.38448339,5.28544297 C3.38038273,4.82514778 2.19325534,5.26598921 1.73296014,6.27008987 C1.71312074,6.31336808 1.69483298,6.35734088 1.67813181,6.40192425 Z" id="shoe"/></g><path d="M117,3.55271368e-15 C139.546839,-6.45073907 160.880173,-6.45073907 181,3.55271368e-15 C188,31.9374682 205.00894,44.6134741 208,93.5789257 C174,110.472724 132,81.5304571 97,98.005311 C87,74.9611073 101,19.4645181 117,3.55271368e-15 Z" id="Skirt" fill="#4af626"/></g></g></g><g mask="url(#mastercompositionphone-mask-2)"><g transform="translate(76.428931, 237.169427) rotate(33.000000) translate(-76.428931, -237.169427) translate(-70.978244, 129.637579) scale(1.1516171875 1.1500748663101603)" id="Body"><g id="Body/Turtle Neck" stroke="none" stroke-width="1" fill="none" fill-rule="evenodd"><path d="M60.9697919,67.4496834 L82.8671837,67.5318631 C66.1894326,121.56567 57.3363474,149.856914 56.3079281,152.405597 C53.9939846,158.140133 58.8906002,166.873732 60.9845874,171.567103 C54.1645409,174.61887 54.8912241,163.316929 46.2879189,167.319492 C38.4352209,170.972846 32.4616931,177.59248 23.3890352,171.994371 C22.2736052,171.306117 21.0512757,168.714714 24.0045784,166.68967 C31.3623323,161.644547 41.9653015,152.814672 43.3979297,149.908251 C45.3515741,145.944826 51.2088615,118.458637 60.9697919,67.4496834 L60.9697919,67.4496834 Z M199.493124,92.4603344 L227.821028,120.095357 C236.063404,123.611168 242.816857,127.493333 248.081387,131.741853 C249.265301,133.169925 250.554184,135.906184 244.983927,134.681747 C239.413671,133.45731 233.49953,132.419902 232.45261,134.23139 C231.405691,136.042878 234.490525,138.818722 232.555688,141.189494 C231.265796,142.770009 226.92779,137.742701 219.54167,126.10757 L190.084396,108.74029 L199.493124,92.4603344 Z" id="SKIN" fill="#57331f"/><path d="M122.768272,9.7139848 L131.253224,7.48281413 C149.019938,54.2642227 221.602897,80.8616426 227.451896,98.4190631 C229.596879,104.857833 225.154909,108.596168 227.774893,110.385298 L217.29519,119.561394 C215.205566,117.515062 211.513381,121.915723 202.815928,119.824345 C194.118475,117.732967 127.737533,66.5128914 122.768272,9.7139848 Z" id="Clothes-Back" fill="#afab00" transform="translate(175.413267, 63.943241) rotate(5.000000) translate(-175.413267, -63.943241)"/><path d="M112.315629,-4.72097411 L139.249859,-2.83754931 C141.453616,-2.68344757 143.115191,-0.772024866 142.961089,1.43173278 L142.241614,11.6763485 C141.22167,75.4733311 178.098291,91.7368983 169.887262,117.318245 C163.108761,138.436573 98.2273311,161.138686 87,140.43774 C82.4547451,132.057203 80.3928582,121.921313 80.1593383,110.901428 C77.2906083,119.368441 75.0207635,126.656945 73.3511268,132.767479 C70.4711839,143.30749 59.3062598,144.982871 59.3062598,149.043262 L59.3062598,149.043262 L44.5966299,144.982871 C45.5943495,139.466662 38.6598745,136.780597 40.5191881,124.456905 C48.8498993,69.2402236 71.2328417,29.2151944 107.668015,4.38181722 L108.046347,-1.0097438 C108.200449,-3.21350145 110.111872,-4.87507585 112.315629,-4.72097411 Z" id="Clothes-Front" fill="#eee537"/></g></g></g></g></g></svg>